<?xml version="1.0" encoding="utf-8"?>
<!-- Generator: Adobe Illustrator 27.0.0, SVG Export Plug-In . SVG Version: 6.00 Build 0)  -->
<svg version="1.1" id="visual" xmlns="http://www.w3.org/2000/svg" xmlns:xlink="http://www.w3.org/1999/xlink" x="0px" y="0px"
	 viewBox="0 0 900 600" style="enable-background:new 0 0 900 600;" xml:space="preserve">
<style type="text/css">
	.st0{fill:#EFF1F3;}
	.st1{fill:#CED4F2;}
	.st2{fill:#B0B0ED;}
</style>
<rect class="st0" width="900" height="600"/>
<path class="st1" d="M619.1,597c-12.5-15.5-37.5-46.6-69.5-54.8c-32-8.3-70.8,6.3-103.4,0.1c-32.5-6.3-58.8-33.4-86.9-53.8
	c-28.2-20.4-58.3-34-92.2-36c-33.8-2-71.4,7.7-106.4,9.2c-35,1.5-67.3-4.9-95.3-26c-28-21-51.7-56.4-63.5-74.2l-2-3v179
	c10,3.1,20.5,6.3,31.1,9.6c31.5,9.7,62.8,19.4,94.4,29.1c25.6,7.9,51.3,15.8,76.9,23.7h419.2L619.1,597z"/>
<path class="st2" d="M370.9,579.5c-28-21.1-59.8-29.2-94.6-28.5c-34.7,0.9-72.4,10.9-108,14.6c-35.7,3.8-69.3,1.4-98.6-15.5
	c-29.2-17-54-48.7-66.5-64.5L0,481.4V600h394.4C386.7,592.7,379,585.5,370.9,579.5z"/>
</svg>
