<svg id="visual" viewBox="0 0 900 600" width="900" height="600" xmlns="http://www.w3.org/2000/svg" xmlns:xlink="http://www.w3.org/1999/xlink" version="1.1"><rect x="0" y="0" width="900" height="600" fill="#eff1f3"></rect><path d="M0 252L21.5 249.5C43 247 86 242 128.8 236C171.7 230 214.3 223 257.2 231.3C300 239.7 343 263.3 385.8 268.3C428.7 273.3 471.3 259.7 514.2 252.8C557 246 600 246 642.8 227.5C685.7 209 728.3 172 771.2 173.7C814 175.3 857 215.7 878.5 235.8L900 256L900 601L878.5 601C857 601 814 601 771.2 601C728.3 601 685.7 601 642.8 601C600 601 557 601 514.2 601C471.3 601 428.7 601 385.8 601C343 601 300 601 257.2 601C214.3 601 171.7 601 128.8 601C86 601 43 601 21.5 601L0 601Z" fill="#91a7e8"></path><path d="M0 287L21.5 282.3C43 277.7 86 268.3 128.8 278.7C171.7 289 214.3 319 257.2 312C300 305 343 261 385.8 236.2C428.7 211.3 471.3 205.7 514.2 215.3C557 225 600 250 642.8 253.8C685.7 257.7 728.3 240.3 771.2 225.8C814 211.3 857 199.7 878.5 193.8L900 188L900 601L878.5 601C857 601 814 601 771.2 601C728.3 601 685.7 601 642.8 601C600 601 557 601 514.2 601C471.3 601 428.7 601 385.8 601C343 601 300 601 257.2 601C214.3 601 171.7 601 128.8 601C86 601 43 601 21.5 601L0 601Z" fill="#828ec7"></path><path d="M0 282L21.5 298C43 314 86 346 128.8 354.8C171.7 363.7 214.3 349.3 257.2 341.8C300 334.3 343 333.7 385.8 346.5C428.7 359.3 471.3 385.7 514.2 398.2C557 410.7 600 409.3 642.8 403.7C685.7 398 728.3 388 771.2 379.8C814 371.7 857 365.3 878.5 362.2L900 359L900 601L878.5 601C857 601 814 601 771.2 601C728.3 601 685.7 601 642.8 601C600 601 557 601 514.2 601C471.3 601 428.7 601 385.8 601C343 601 300 601 257.2 601C214.3 601 171.7 601 128.8 601C86 601 43 601 21.5 601L0 601Z" fill="#7177a7"></path><path d="M0 452L21.5 437.5C43 423 86 394 128.8 396C171.7 398 214.3 431 257.2 435.7C300 440.3 343 416.7 385.8 402.2C428.7 387.7 471.3 382.3 514.2 392.8C557 403.3 600 429.7 642.8 445C685.7 460.3 728.3 464.7 771.2 449.3C814 434 857 399 878.5 381.5L900 364L900 601L878.5 601C857 601 814 601 771.2 601C728.3 601 685.7 601 642.8 601C600 601 557 601 514.2 601C471.3 601 428.7 601 385.8 601C343 601 300 601 257.2 601C214.3 601 171.7 601 128.8 601C86 601 43 601 21.5 601L0 601Z" fill="#606188"></path><path d="M0 456L21.5 459C43 462 86 468 128.8 480.5C171.7 493 214.3 512 257.2 510.5C300 509 343 487 385.8 476.7C428.7 466.3 471.3 467.7 514.2 477.3C557 487 600 505 642.8 517.3C685.7 529.7 728.3 536.3 771.2 529.7C814 523 857 503 878.5 493L900 483L900 601L878.5 601C857 601 814 601 771.2 601C728.3 601 685.7 601 642.8 601C600 601 557 601 514.2 601C471.3 601 428.7 601 385.8 601C343 601 300 601 257.2 601C214.3 601 171.7 601 128.8 601C86 601 43 601 21.5 601L0 601Z" fill="#4e4c6a"></path></svg>